<?xml version="1.0" standalone="no"?>
<!DOCTYPE svg PUBLIC "-//W3C//DTD SVG 20010904//EN"
 "http://www.w3.org/TR/2001/REC-SVG-20010904/DTD/svg10.dtd">
<svg version="1.0" xmlns="http://www.w3.org/2000/svg"
 width="512.000000pt" height="512.000000pt" viewBox="0 0 512.000000 512.000000"
 preserveAspectRatio="xMidYMid meet">
<metadata>
Created by potrace 1.14, written by Peter Selinger 2001-2017
</metadata>
<g transform="translate(0.000000,512.000000) scale(0.100000,-0.100000)"
fill="#000000" stroke="none">
<path d="M0 2560 l0 -2560 2560 0 2560 0 0 2560 0 2560 -2560 0 -2560 0 0
-2560z m3030 1795 c180 -24 352 -62 511 -115 156 -51 379 -151 379 -170 0 -14
-289 -712 -300 -723 -4 -5 -18 -2 -31 7 -43 27 -245 113 -351 149 -450 152
-928 135 -1088 -39 -37 -40 -70 -120 -70 -168 0 -87 60 -161 173 -216 101 -48
199 -77 466 -136 113 -25 267 -60 341 -79 678 -170 982 -454 1007 -941 16
-309 -80 -560 -296 -774 -221 -219 -521 -348 -941 -402 -138 -18 -526 -15
-690 6 -292 36 -560 104 -791 200 -126 52 -311 154 -307 168 2 4 75 169 163
367 l160 359 40 -24 c81 -50 273 -142 370 -179 127 -47 328 -99 470 -121 143
-22 429 -22 535 -1 209 42 310 128 310 261 0 70 -10 96 -60 150 -78 85 -204
131 -617 227 -426 98 -600 152 -771 238 -287 145 -448 332 -514 599 -32 125
-31 359 0 485 45 180 127 332 251 461 237 248 588 388 1081 430 93 8 459 -4
570 -19z"/>
</g>
</svg>
