<svg width="350" height="76" viewBox="0 0 350 76" fill="none" xmlns="http://www.w3.org/2000/svg">
<path d="M135.049 48.8453C147.427 48.8453 153.097 42.8083 153.097 35.7422C153.097 18.2484 123.293 26.2063 123.293 13.0346C123.293 8.23236 127.235 4.32199 136.086 4.32199C140.374 4.32199 145.214 5.62545 149.363 8.30096L151.092 4.25338C147.22 1.57787 141.549 0 136.086 0C123.778 0 118.245 6.10566 118.245 13.1718C118.245 30.9399 148.049 22.8448 148.049 36.0166C148.049 40.7502 144.108 44.5233 135.049 44.5233C128.687 44.5233 122.533 42.0536 119.075 38.6921L117.07 42.6024C120.666 46.307 127.788 48.8453 135.049 48.8453Z" fill="white"/>
<path d="M172.976 48.4337H178.093V4.80221H195.104V0.411617H155.965V4.80221H172.976V48.4337Z" fill="white"/>
<path d="M241.934 48.4337L230.11 31.969C237.163 29.7051 241.174 24.4227 241.174 16.8763C241.174 6.58589 233.705 0.411617 221.397 0.411617H203.279V48.4337H208.396V33.2038H221.397C222.78 33.2038 224.024 33.1352 225.269 32.998L236.333 48.4337H241.934ZM221.258 28.8819H208.396V4.80221H221.258C230.939 4.80221 236.057 9.1928 236.057 16.8763C236.057 24.4227 230.939 28.8819 221.258 28.8819Z" fill="white"/>
<path d="M274.411 48.8453C288.933 48.8453 299.79 38.4863 299.79 24.4227C299.79 10.3591 288.933 0 274.411 0C259.751 0 248.964 10.4277 248.964 24.4227C248.964 38.4177 259.751 48.8453 274.411 48.8453ZM274.411 44.3175C262.725 44.3175 254.012 35.8794 254.012 24.4227C254.012 12.966 262.725 4.5278 274.411 4.5278C286.029 4.5278 294.673 12.966 294.673 24.4227C294.673 35.8794 286.029 44.3175 274.411 44.3175Z" fill="white"/>
<path d="M345.125 0.411617H340.007L323.411 27.3726L306.815 0.411617H301.352L320.714 31.8318V48.4337H325.762V31.8318L345.125 0.411617Z" fill="white"/>
<path d="M3.34921 74.6979C4.33587 74.6979 5.18675 74.3566 5.76607 73.71L5.1777 73.1443C4.68889 73.6562 4.09147 73.8986 3.39447 73.8986C1.96427 73.8986 0.905192 72.8749 0.905192 71.4829C0.905192 70.091 1.96427 69.0673 3.39447 69.0673C4.09147 69.0673 4.68889 69.3007 5.1777 69.8126L5.76607 69.2469C5.18675 68.6003 4.33587 68.268 3.35826 68.268C1.4302 68.268 0 69.624 0 71.4829C0 73.3419 1.4302 74.6979 3.34921 74.6979Z" fill="white"/>
<path d="M19.7796 74.6979C21.7076 74.6979 23.1378 73.3329 23.1378 71.4829C23.1378 69.633 21.7076 68.268 19.7796 68.268C17.8334 68.268 16.4032 69.642 16.4032 71.4829C16.4032 73.3239 17.8334 74.6979 19.7796 74.6979ZM19.7796 73.8986C18.3584 73.8986 17.3084 72.8749 17.3084 71.4829C17.3084 70.091 18.3584 69.0673 19.7796 69.0673C21.1826 69.0673 22.2326 70.091 22.2326 71.4829C22.2326 72.8749 21.1826 73.8986 19.7796 73.8986Z" fill="white"/>
<path d="M38.5954 71.3662C39.2109 71.1327 39.5821 70.6478 39.5821 69.9563C39.5821 68.9056 38.7493 68.3399 37.3734 68.3399H34.6488V74.626H37.5454C39.1023 74.626 39.8989 73.9884 39.8989 72.9108C39.8989 72.0936 39.4463 71.5727 38.5954 71.3662ZM35.5449 69.0493H37.31C38.179 69.0493 38.6678 69.4085 38.6678 70.082C38.6678 70.7555 38.179 71.1058 37.31 71.1058H35.5449V69.0493ZM37.5273 73.9166H35.5449V71.7883H37.5273C38.4777 71.7883 38.9846 72.1116 38.9846 72.839C38.9846 73.5753 38.4777 73.9166 37.5273 73.9166Z" fill="white"/>
<path d="M52.364 73.8447V71.8152H55.5412V71.0519H52.364V69.1211H55.9305V68.3399H51.4588V74.626H56.0572V73.8447H52.364Z" fill="white"/>
<path d="M69.9975 68.3399H67.5263V74.626H68.4315V72.7222H69.9975C71.6449 72.7222 72.6407 71.896 72.6407 70.531C72.6407 69.166 71.6449 68.3399 69.9975 68.3399ZM69.9703 71.9409H68.4315V69.1211H69.9703C71.129 69.1211 71.7355 69.633 71.7355 70.531C71.7355 71.4291 71.129 71.9409 69.9703 71.9409Z" fill="white"/>
<path d="M90.9989 68.3399V73.8447H88.3648V68.3399H87.4777V73.8447H84.8436V68.3399H83.9474V74.626H91.886V68.3399H90.9989Z" fill="white"/>
<path d="M104.81 73.8447V71.8152H107.987V71.0519H104.81V69.1211H108.376V68.3399H103.904V74.626H108.503V73.8447H104.81Z" fill="white"/>
<path d="M124.516 68.3399V71.0429H120.877V68.3399H119.972V74.626H120.877V71.8242H124.516V74.626H125.421V68.3399H124.516Z" fill="white"/>
<path d="M140.278 74.6979C141.265 74.6979 142.116 74.3566 142.695 73.71L142.107 73.1443C141.618 73.6562 141.02 73.8986 140.323 73.8986C138.893 73.8986 137.834 72.8749 137.834 71.4829C137.834 70.091 138.893 69.0673 140.323 69.0673C141.02 69.0673 141.618 69.3007 142.107 69.8126L142.695 69.2469C142.116 68.6003 141.265 68.268 140.287 68.268C138.359 68.268 136.929 69.624 136.929 71.4829C136.929 73.3419 138.359 74.6979 140.278 74.6979Z" fill="white"/>
<path d="M158.273 68.3399H153.05V69.1211H155.214V74.626H156.101V69.1211H158.273V68.3399Z" fill="white"/>
<path d="M173.368 71.3662C173.983 71.1327 174.354 70.6478 174.354 69.9563C174.354 68.9056 173.521 68.3399 172.146 68.3399H169.421V74.626H172.317C173.874 74.626 174.671 73.9884 174.671 72.9108C174.671 72.0936 174.218 71.5727 173.368 71.3662ZM170.317 69.0493H172.082C172.951 69.0493 173.44 69.4085 173.44 70.082C173.44 70.7555 172.951 71.1058 172.082 71.1058H170.317V69.0493ZM172.299 73.9166H170.317V71.7883H172.299C173.25 71.7883 173.757 72.1116 173.757 72.839C173.757 73.5753 173.25 73.9166 172.299 73.9166Z" fill="white"/>
<path d="M189.082 74.6979C191.01 74.6979 192.441 73.3329 192.441 71.4829C192.441 69.633 191.01 68.268 189.082 68.268C187.136 68.268 185.706 69.642 185.706 71.4829C185.706 73.3239 187.136 74.6979 189.082 74.6979ZM189.082 73.8986C187.661 73.8986 186.611 72.8749 186.611 71.4829C186.611 70.091 187.661 69.0673 189.082 69.0673C190.485 69.0673 191.535 70.091 191.535 71.4829C191.535 72.8749 190.485 73.8986 189.082 73.8986Z" fill="white"/>
<path d="M220.377 71.3662C220.992 71.1327 221.363 70.6478 221.363 69.9563C221.363 68.9056 220.531 68.3399 219.155 68.3399H216.43V74.626H219.327C220.884 74.626 221.68 73.9884 221.68 72.9108C221.68 72.0936 221.228 71.5727 220.377 71.3662ZM217.326 69.0493H219.091C219.96 69.0493 220.449 69.4085 220.449 70.082C220.449 70.7555 219.96 71.1058 219.091 71.1058H217.326V69.0493ZM219.309 73.9166H217.326V71.7883H219.309C220.259 71.7883 220.766 72.1116 220.766 72.839C220.766 73.5753 220.259 73.9166 219.309 73.9166Z" fill="white"/>
<path d="M250.824 73.8447V68.3399H246.37L246.307 70.3604C246.244 72.2732 246.035 73.7909 245.167 73.8447H244.859L244.85 76H245.691L245.701 74.626H250.914V76H251.756V73.8447H250.824ZM247.104 70.4412L247.149 69.1211H249.928V73.8447H246.352C246.895 73.3598 247.049 71.9769 247.104 70.4412Z" fill="white"/>
<path d="M263.947 73.8447V71.8152H267.124V71.0519H263.947V69.1211H267.513V68.3399H263.041V74.626H267.64V73.8447H263.947Z" fill="white"/>
<path d="M283.463 68.3399H278.24V69.1211H280.403V74.626H281.29V69.1211H283.463V68.3399Z" fill="white"/>
<path d="M299.108 74.626H300.059L297.18 68.3399H296.284L293.414 74.626H294.347L295.044 73.0545H298.411L299.108 74.626ZM295.361 72.3361L296.727 69.2559L298.094 72.3361H295.361Z" fill="white"/>
<path d="M311.941 68.3399L311.842 70.989C311.769 72.9377 311.498 73.8627 310.71 73.8627C310.611 73.8627 310.529 73.8537 310.421 73.8268L310.357 74.626C310.574 74.6799 310.746 74.6979 310.928 74.6979C312.177 74.6979 312.566 73.4586 312.647 70.9621L312.711 69.1211H315.517V74.626H316.404V68.3399H311.941Z" fill="white"/>
<path d="M330.525 68.3399C328.968 68.3399 327.964 69.166 327.964 70.6029C327.964 71.6176 328.471 72.3361 329.367 72.6324L327.964 74.626H328.923L330.19 72.7851C330.272 72.7941 330.353 72.7941 330.435 72.7941H332.182V74.626H333.069V68.3399H330.525ZM328.878 70.5939C328.878 69.624 329.484 69.1211 330.562 69.1211H332.182V72.0397H330.507C329.43 72.0397 328.878 71.5189 328.878 70.5939Z" fill="white"/>
<path d="M344.415 68.3399L346.569 71.3931L344.261 74.626H345.302L347.112 72.1205L348.932 74.626H350L347.683 71.3572L349.828 68.3399H348.769L347.112 70.6388L345.456 68.3399H344.415Z" fill="white"/>
<path d="M45.0182 48.4337H50.4119L28.2837 0.411617H23.2357L1.10748 48.4337H6.43208L12.2407 35.6049H39.2095L45.0182 48.4337ZM14.1078 31.4888L25.7251 5.69405L37.3424 31.4888H14.1078Z" fill="white"/>
<path d="M69.6072 48.4337H75.0009L52.8727 0.411617H47.8247L25.6965 48.4337H31.0211L36.8297 35.6049H63.7985L69.6072 48.4337ZM38.6968 31.4888L50.3141 5.69405L61.9314 31.4888H38.6968Z" fill="white"/>
<path d="M94.1962 48.4337H99.5899L77.4617 0.411617H72.4137L50.2855 48.4337H55.6101L61.4187 35.6049H88.3875L94.1962 48.4337ZM63.2858 31.4888L74.9031 5.69405L86.5204 31.4888H63.2858Z" fill="white"/>
</svg>
