<svg width="24" height="24" viewBox="0 0 24 24" fill="none" xmlns="http://www.w3.org/2000/svg">
<g clip-path="url(#clip0)">
<path d="M20.6035 6.20147C20.1266 6.4322 19.927 7.00608 20.1577 7.48275C20.7881 8.78487 21.1076 10.1884 21.1076 11.6559C21.1076 16.9462 16.8035 21.2503 11.5132 21.2503C6.22297 21.2503 1.91887 16.9462 1.91887 11.6559C1.91887 6.36567 6.22297 2.06157 11.5132 2.06157C13.7054 2.06157 15.7649 2.7774 17.4694 4.13152C17.8828 4.46156 18.4874 4.39246 18.8174 3.97763C19.1475 3.56303 19.0784 2.95917 18.6633 2.62959C16.6453 1.02577 14.106 0.1427 11.5132 0.1427C5.16516 0.1427 0 5.30786 0 11.6559C0 18.004 5.16516 23.1691 11.5132 23.1691C17.8613 23.1691 23.0264 18.004 23.0264 11.6559C23.0264 9.8968 22.6423 8.21099 21.8848 6.64723C21.6545 6.16938 21.0788 5.97028 20.6035 6.20147Z" fill="white"/>
<path d="M11.5135 3.98053C10.9839 3.98053 10.5541 4.41035 10.5541 4.93996V11.656C10.5541 12.1856 10.9839 12.6154 11.5135 12.6154H16.3107C16.8403 12.6154 17.2701 12.1856 17.2701 11.656C17.2701 11.1264 16.8403 10.6966 16.3107 10.6966H12.4729V4.93996C12.4729 4.41035 12.0431 3.98053 11.5135 3.98053Z" fill="white"/>
</g>
<defs>
<clipPath id="clip0">
<rect width="23.0264" height="23.0264" fill="white" transform="translate(0 0.1427)"/>
</clipPath>
</defs>
</svg>
