<svg width="24" height="24" viewBox="0 0 24 24" fill="none" xmlns="http://www.w3.org/2000/svg">
<g clip-path="url(#clip0)">
<path d="M22.4334 10.7578L18.9788 7.30308V2.74443C18.9788 2.37187 18.6767 2.06983 18.3042 2.06983H15.6058C15.2332 2.06983 14.9312 2.37187 14.9312 2.74443V3.25555L12.9891 1.31351C12.1947 0.519052 10.9143 0.526562 10.1296 1.31126L0.593103 10.7577C-0.197981 11.5488 -0.198071 12.8284 0.593103 13.6196C1.17065 14.1971 1.9965 14.345 2.69858 14.0977V23.072C2.69858 23.4446 3.00062 23.7466 3.37318 23.7466H19.6533C20.0258 23.7466 20.3279 23.4446 20.3279 23.072V14.0975C21.0309 14.3455 21.8565 14.1964 22.4334 13.6196C22.8157 13.2373 23.0262 12.7291 23.0262 12.1887C23.0262 11.6482 22.8157 11.14 22.4334 10.7578ZM16.2803 3.41899H17.6295V5.95387L16.2803 4.60471V3.41899ZM13.5819 22.3974H9.53442V16.9108H13.5819V22.3974ZM18.9787 22.3974H14.9311V16.2362C14.9311 15.8636 14.6291 15.5616 14.2565 15.5616H8.85982C8.48726 15.5616 8.18521 15.8636 8.18521 16.2362V22.3974H4.04779V13.033L11.5557 5.60375L18.9787 13.0267V22.3974ZM21.4794 12.6656C21.2156 12.9294 20.7894 12.9294 20.5255 12.6656C20.2357 12.3757 12.7319 4.87199 12.0352 4.17526C11.7728 3.9128 11.3475 3.91167 11.0837 4.17274C10.6839 4.56842 2.83134 12.3386 2.50092 12.6656C2.23792 12.9285 1.81009 12.9285 1.54708 12.6656C1.28412 12.4026 1.28412 11.9747 1.54483 11.714L11.0813 2.26753C11.3451 2.00376 11.7713 2.00372 12.0352 2.26753C12.6258 2.85812 21.2084 11.4408 21.4794 11.7118C21.7423 11.9747 21.7423 12.4026 21.4794 12.6656Z" fill="white"/>
<path d="M11.5582 8.81522C10.0703 8.81522 8.8598 10.0257 8.8598 11.5136C8.8598 13.0015 10.0703 14.212 11.5582 14.212C13.0461 14.212 14.2565 13.0015 14.2565 11.5136C14.2565 10.0257 13.0461 8.81522 11.5582 8.81522ZM11.5582 12.8627C10.8142 12.8627 10.209 12.2575 10.209 11.5136C10.209 10.7697 10.8143 10.1644 11.5582 10.1644C12.3021 10.1644 12.9073 10.7697 12.9073 11.5136C12.9073 12.2575 12.3021 12.8627 11.5582 12.8627Z" fill="white"/>
</g>
<defs>
<clipPath id="clip0">
<rect width="23.0264" height="23.0264" fill="white" transform="translate(0 0.719604)"/>
</clipPath>
</defs>
</svg>
