<svg width="24" height="24" viewBox="0 0 24 24" fill="none" xmlns="http://www.w3.org/2000/svg">
<path d="M22.3668 18.9945C23.2436 19.8713 23.2436 21.2978 22.3668 22.1746C22.3656 22.176 22.3642 22.1772 22.3628 22.1786L20.8242 23.6981C20.6489 23.8711 20.4205 23.9575 20.1923 23.9575C19.9601 23.9575 19.7282 23.8683 19.5521 23.6902C19.2032 23.3367 19.2068 22.7671 19.5602 22.4181L20.4604 21.529H6.0255C4.04158 21.529 2.42763 19.915 2.42763 17.9311V3.47443L1.53027 4.35985C1.17663 4.70874 0.607086 4.70488 0.25819 4.35124C-0.090705 3.9976 -0.0868401 3.42806 0.266798 3.07916L1.78641 1.5801C2.66075 0.717529 4.08339 0.717529 4.95774 1.5801L6.47735 3.07916C6.83098 3.42806 6.83485 3.9976 6.48595 4.35124C6.30992 4.52955 6.07785 4.61897 5.84561 4.61897C5.6174 4.61897 5.3892 4.53271 5.21387 4.35985L4.22657 3.38572V17.9311C4.22657 18.923 5.03363 19.73 6.0255 19.73H20.5516L19.5602 18.751C19.2068 18.4019 19.2031 17.8324 19.5521 17.4789C19.9012 17.1256 20.4708 17.1219 20.8242 17.471L22.3628 18.9904C22.3642 18.9918 22.3656 18.9931 22.3668 18.9945ZM20.327 0.931152H8.67893C8.18089 0.931152 7.77771 1.33591 7.77947 1.83396C7.7814 2.32937 8.18352 2.73009 8.67893 2.73009H20.327C20.8239 2.73009 21.2265 3.13274 21.2265 3.62956V15.3226C21.2265 15.8181 21.6272 16.2204 22.1226 16.2221C22.6207 16.2239 23.0255 15.8207 23.0255 15.3226V3.62956C23.0255 2.13929 21.8173 0.931152 20.327 0.931152ZM13.2212 16.3521C13.7181 16.3521 14.1207 15.9495 14.1207 15.4526V11.4493C14.1207 10.0853 13.0111 8.97577 11.6472 8.97577C11.0497 8.97577 10.5011 9.18869 10.0731 9.54268C9.64516 9.18869 9.09652 8.97577 8.49904 8.97577C8.15594 8.97577 7.82883 9.04622 7.53159 9.17306C7.37154 9.02654 7.15897 8.93642 6.92497 8.93642C6.42816 8.93642 6.0255 9.33907 6.0255 9.83589V15.4576C6.0255 15.9544 6.42816 16.357 6.92497 16.357C7.42179 16.357 7.82444 15.9544 7.82444 15.4576V11.4493C7.82444 11.0774 8.12713 10.7747 8.49904 10.7747C8.87095 10.7747 9.17364 11.0774 9.17364 11.4493V15.4576C9.17364 15.9544 9.57629 16.357 10.0731 16.357C10.5699 16.357 10.9726 15.9544 10.9726 15.4576V11.4493C10.9726 11.0774 11.2753 10.7747 11.6472 10.7747C12.0191 10.7747 12.3218 11.0774 12.3218 11.4493V15.4526C12.3218 15.9495 12.7244 16.3521 13.2212 16.3521ZM17.3026 5.78828C17.2978 5.78828 17.2933 5.78898 17.2885 5.78898C17.284 5.78898 17.2794 5.78828 17.2747 5.78828C16.1308 5.78828 15.2001 6.72007 15.2001 7.86531C15.2001 8.36195 15.6027 8.76478 16.0995 8.76478C16.5964 8.76478 16.999 8.36195 16.999 7.86531C16.999 7.71458 17.1253 7.58722 17.2747 7.58722C17.2794 7.58722 17.284 7.58651 17.2887 7.58651C17.2933 7.58651 17.2978 7.58722 17.3026 7.58722C17.4458 7.58722 17.5677 7.70422 17.5775 7.84669C17.5598 7.91257 17.4219 8.31997 16.56 9.2681C16.0254 9.85592 15.5001 10.3346 15.495 10.3392C15.2198 10.589 15.1266 10.9825 15.2605 11.3291C15.3944 11.6759 15.7278 11.9047 16.0995 11.9047H18.5281C19.0249 11.9047 19.4276 11.502 19.4276 11.0052C19.4276 10.5084 19.0249 10.1057 18.5281 10.1057H18.2187C19.0174 9.1655 19.3772 8.46578 19.3772 7.86531C19.3772 6.72007 18.4464 5.78828 17.3026 5.78828Z" fill="white"/>
</svg>
