<svg width="23" height="23" viewBox="0 0 23 23" fill="none" xmlns="http://www.w3.org/2000/svg">
<path d="M19.6317 3.36826C17.4597 1.19622 14.5719 0 11.5002 0H11.4998C8.42812 0 5.54031 1.19622 3.36826 3.36826C1.19622 5.54031 0 8.42829 0 11.5C0 14.5717 1.19622 17.4597 3.36826 19.6317C5.54031 21.8038 8.42829 23 11.5 23C14.5717 23 17.4597 21.8038 19.6317 19.6317C21.8038 17.4597 23 14.5717 23 11.5C23 8.42829 21.8038 5.54031 19.6317 3.36826V3.36826ZM20.3829 16.4107H17.0171C17.4681 15.0894 17.7398 13.6587 17.8031 12.1738H21.6294C21.5288 13.7026 21.0884 15.1397 20.3829 16.4107V16.4107ZM11.5 21.5527C10.0657 20.6992 8.87611 19.3762 8.02048 17.7584H14.9795C14.1239 19.3762 12.9343 20.6992 11.5 21.5527ZM7.41141 16.4107C6.91586 15.1106 6.61545 13.675 6.54596 12.1738H16.454C16.3846 13.675 16.084 15.1106 15.5884 16.4107H7.41141ZM1.37064 12.1738H5.1969C5.26025 13.6587 5.53188 15.0894 5.98286 16.4107H2.61705C1.91164 15.1397 1.47119 13.7026 1.37064 12.1738V12.1738ZM2.61705 6.5893H5.98286C5.53188 7.91064 5.26025 9.34129 5.1969 10.8262H1.37064C1.47119 9.29742 1.91164 7.86028 2.61705 6.5893ZM11.5 1.44733C12.9343 2.30084 14.1239 3.62376 14.9795 5.24165H8.02048C8.87611 3.62376 10.0657 2.30084 11.5 1.44733ZM15.5886 6.5893C16.0841 7.8894 16.3846 9.32497 16.454 10.8262H6.54596C6.61545 9.32497 6.91604 7.8894 7.41158 6.5893H15.5886ZM21.6294 10.8262H17.8031C17.7398 9.34129 17.4681 7.91064 17.0171 6.5893H20.3829C21.0884 7.86028 21.5288 9.29742 21.6294 10.8262ZM16.4776 5.24165C15.8371 3.85819 14.985 2.63565 13.9619 1.65018C16.1824 2.20538 18.116 3.4932 19.4887 5.24165H16.4776ZM9.03807 1.65018C8.01505 2.63565 7.16293 3.85819 6.52245 5.24165H3.51128C4.88403 3.4932 6.8176 2.20538 9.03807 1.65018ZM6.52245 17.7584C7.16293 19.1418 8.01505 20.3643 9.03807 21.3498C6.8176 20.7946 4.88403 19.5068 3.51128 17.7584H6.52245ZM13.9619 21.3498C14.985 20.3643 15.8371 19.1416 16.4776 17.7584H19.4887C18.116 19.5068 16.1824 20.7946 13.9619 21.3498Z" fill="white"/>
</svg>
